# xmcd
#
# Track frame offsets:
#	150
#	18708
#	34486
#	51955
#	72255
#	88766
#	104687
#	127467
#	146577
#	163235
#	179618
#	198172
#	213381
#	243908
#
# Disc length: 4440 seconds
#
# Revision: 1
# Processed by: cddbd v1.5PL3 Copyright (c) Steve Scherf et al.
# Submitted via: EasyCDDAExtractor 6.2.0.3
#
DISCID=e011560e
DTITLE=Spotrunnaz - The Spotlight
DYEAR=2002
DGENRE=Hip-Hop
TTITLE0=Don't Play ft Blues
TTITLE1=Bang Out
TTITLE2=The Floorshaker
TTITLE3=Logical
TTITLE4=Impossible
TTITLE5=Gotta Be ft Masayah
TTITLE6=Diamonds ft George Cole
TTITLE7=Bigger and Better ft Timbuktu and Eye N' I
TTITLE8=Building
TTITLE9=Mr. Mista ft Timbuktu
TTITLE10=Big Dogstyle ft Swing
TTITLE11=Choose It Or Loose It
TTITLE12=Tour Life
TTITLE13=Data
EXTD=
EXTT0=
EXTT1=
EXTT2=
EXTT3=
EXTT4=
EXTT5=
EXTT6=
EXTT7=
EXTT8=
EXTT9=
EXTT10=
EXTT11=
EXTT12=
EXTT13=
PLAYORDER=
